Coordinates
version=1
nRows=15
nColumns=42
inDegrees=yes

Units are S.I. units (second, meters, Newtons, ...)
If the header above contains a line with 'inDegrees', this indicates whether rotational values are in degrees (yes) or radians (no).

endheader
time	pelvis_tilt	pelvis_list	pelvis_rotation	pelvis_tx	pelvis_ty	pelvis_tz	hip_flexion_r	hip_adduction_r	hip_rotation_r	knee_angle_r	knee_adduction_r	knee_angle_r_beta	ankle_angle_r	subtalar_angle_r	mtp_angle_r	hip_flexion_l	hip_adduction_l	hip_rotation_l	knee_angle_l	knee_adduction_l	knee_angle_l_beta	ankle_angle_l	subtalar_angle_l	mtp_angle_l	lumbar_extension	lumbar_bending	lumbar_rotation	arm_flex_r	arm_add_r	arm_rot_r	elbow_flex_r	pro_sup_r	wrist_flex_r	wrist_dev_r	arm_flex_l	arm_add_l	arm_rot_l	elbow_flex_l	pro_sup_l	wrist_flex_l	wrist_dev_l
      2.19000000	     -0.12873461	      1.84455160	     -3.50535672	      0.08117985	      0.97975573	      0.29258737	      4.10387963	     -9.30493748	      2.52823105	     52.12205880	      7.04485780	      0.90970154	      2.42305431	      4.60870696	     -7.50705477	      6.53629600	      2.12386477	    -11.42395350	      5.08861136	      0.60491110	      0.08881302	      2.22764173	     16.81173730	     -7.50705477	     -6.88187704	     -3.95781761	     -0.77534242	     -1.95322015	    -14.14378267	     13.37691594	     30.94807368	     90.00000001	      0.00000000	      0.00000000	     -3.70535084	    -15.36852164	     17.39377682	     27.24137333	     90.00000001	      0.00000000	      0.00000000
      2.20000000	      0.15755158	      1.56961537	     -3.18058204	      0.09044331	      0.98082316	      0.29100592	      5.27130786	     -9.06100623	      2.41533047	     53.30489921	      7.18776330	      0.93034600	      3.11334924	      4.64063157	     -7.50697461	      5.56273970	      1.93585040	    -11.24796183	      5.02142508	      0.74981352	      0.08764040	      2.64789149	     17.08141375	     -7.50697461	     -7.25788788	     -3.53653847	     -1.29937737	     -2.30564942	    -14.07250615	     13.37669283	     30.79994190	     90.00000001	      0.00000000	      0.00000000	     -2.83764250	    -15.41653660	     17.55930384	     27.39406290	     90.00000001	      0.00000000	      0.00000000
      2.21000000	      0.25390800	      1.46558120	     -2.79606672	      0.10000344	      0.98145759	      0.28931751	      6.64802045	     -8.99472068	      1.42190926	     54.34360733	      6.61814052	      0.94847488	      4.42199716	      6.38421507	     -7.50662436	      4.70082408	      2.01917305	    -10.79911784	      4.74116046	      0.73276257	      0.08274886	      3.21510824	     17.53819476	     -7.50662436	     -7.33090834	     -3.27644178	     -1.72766708	     -2.86959620	    -13.93782873	     13.04514431	     30.65695574	     90.00000001	      0.00000000	      0.00000000	     -1.89291702	    -15.73822400	     19.21201912	     27.52841714	     90.00000001	      0.00000000	      0.00000000
      2.22000000	      0.47318016	      1.23283894	     -2.46550049	      0.10924711	      0.98233132	      0.28758637	      7.82357661	     -8.83233090	      1.28831441	     54.99093047	      6.89979438	      0.95977280	      4.90653905	      6.45104766	     -7.50655846	      3.87898075	      1.90740193	    -10.72119138	      4.79405285	      0.77352122	      0.08367201	      3.55030383	     17.65796233	     -7.50655846	     -7.59927341	     -2.85871366	     -2.20320990	     -3.26971620	    -13.90751117	     13.02995843	     30.50689797	     90.00000001	      0.00000000	      0.00000000	     -1.02069434	    -15.74828279	     19.31325380	     27.74912219	     90.00000001	      0.00000000	      0.00000000
      2.23000000	      0.50997454	      0.99355213	     -2.09339606	      0.11859330	      0.98294765	      0.28605793	      9.10155890	     -8.55830579	      0.90884957	     55.29140153	      6.91311055	      0.96501700	      5.99200518	      6.99039495	     -7.50643046	      3.09421809	      1.83809104	    -10.13167458	      4.50900150	      0.71096411	      0.07869692	      4.27869905	     18.10729924	     -7.50643046	     -7.61851688	     -2.44430170	     -2.56430260	     -3.82142696	    -13.78625310	     12.85099901	     30.32061591	     90.00000001	      0.00000000	      0.00000000	      0.00943349	    -15.82735572	     20.02206397	     27.63873905	     90.00000001	      0.00000000	      0.00000000
      2.24000000	      0.67433888	      0.88562885	     -1.76613109	      0.12771846	      0.98369143	      0.28447946	     10.23390084	     -8.45158821	      0.75308418	     55.29988889	      7.12687462	      0.96516514	      6.16276459	      7.07828400	     -7.50638115	      2.44588949	      1.85250931	    -10.26380208	      4.73221945	      0.68504219	      0.08259281	      4.41363785	     18.04194827	     -7.50638115	     -7.81908378	     -2.17393137	     -2.98640146	     -4.28697868	    -13.71178637	     12.84677166	     30.21793769	     90.00000001	      0.00000000	      0.00000000	      0.87834492	    -15.89295657	     20.03676960	     27.99349595	     90.00000001	      0.00000000	      0.00000000
      2.25000000	      0.72181852	      0.58880772	     -1.35010802	      0.13699609	      0.98406499	      0.28282786	     11.43531389	     -8.14748401	      0.25354991	     55.18961366	      7.20845383	      0.96324047	      7.32997762	      7.54818868	     -7.50627897	      1.62687252	      1.73113612	     -9.45071804	      4.39341940	      0.59362799	      0.07667963	      5.26162064	     18.60727499	     -7.50627897	     -7.83692362	     -1.66546352	     -3.33128460	     -4.84217349	    -13.63988187	     12.53766007	     30.02277613	     90.00000001	      0.00000000	      0.00000000	      1.93769274	    -15.94158268	     20.88185243	     27.88620806	     90.00000001	      0.00000000	      0.00000000
      2.26000000	      0.84756080	      0.55206811	     -1.08209081	      0.14579418	      0.98455465	      0.28134899	     12.60679225	     -8.09310952	      0.03957784	     54.83118694	      7.36884645	      0.95698474	      7.43154046	      7.59625930	     -7.50623278	      1.05382493	      1.80301645	     -9.62903778	      4.64049600	      0.56933854	      0.08099193	      5.36485708	     18.50396325	     -7.50623278	     -8.02301022	     -1.47244232	     -3.68458500	     -5.26227820	    -13.54937136	     12.53184322	     29.95530014	     90.00000001	      0.00000000	      0.00000000	      2.82020967	    -16.02570105	     20.87455447	     28.28625508	     90.00000001	      0.00000000	      0.00000000
      2.27000000	      1.29509109	      0.03622123	     -0.37193169	      0.15575718	      0.98535068	      0.27977185	     12.93852941	     -7.55276116	     -1.45249261	     53.76356943	      6.94503290	      0.93835130	      8.39630281	      8.55828256	     -7.50592706	     -0.30185339	      1.38047386	     -8.57840237	      4.16270378	      0.53794241	      0.07265289	      6.10260628	     18.97322171	     -7.50592706	     -8.40446973	     -0.71349616	     -4.08398121	     -5.93593583	    -13.18293610	     10.98452903	     29.69934458	     90.00000001	      0.00000000	      0.00000000	      3.87286086	    -16.51908505	     23.75454457	     28.71801564	     90.00000001	      0.00000000	      0.00000000
      2.28000000	      1.36422797	      0.06536538	     -0.16602146	      0.16427040	      0.98541031	      0.27842151	     14.17537552	     -7.57252549	     -1.70428813	     53.12924097	      7.09093800	      0.92728018	      8.50192766	      8.52157703	     -7.50588307	     -0.81149857	      1.49771975	     -8.77186397	      4.38096429	      0.51480591	      0.07646225	      6.23724970	     18.87545969	     -7.50588307	     -8.54874982	     -0.60099152	     -4.33677080	     -6.33356841	    -13.10464407	     10.99921753	     29.62769419	     90.00000001	      0.00000000	      0.00000000	      4.80259181	    -16.62587820	     23.67217491	     29.14591934	     90.00000001	      0.00000000	      0.00000000
      2.29000000	      1.34322430	     -0.17094303	      0.24992933	      0.17416707	      0.98543347	      0.27684449	     14.96797668	     -7.29656826	     -2.18013390	     51.62242030	      7.29342066	      0.90098120	      9.25787913	      8.19688645	     -7.50577418	     -1.64578052	      1.44211010	     -8.01407867	      3.91537865	      0.31851088	      0.06833625	      7.04214740	     19.49580509	     -7.50577418	     -8.37251129	     -0.15389297	     -4.59096963	     -7.01161398	    -12.96778861	     10.64027704	     29.39312239	     90.00000001	      0.00000000	      0.00000000	      5.59615088	    -16.63562285	     24.16692570	     29.43062063	     90.00000001	      0.00000000	      0.00000000
      2.30000000	      1.80783892	     -0.53319629	      0.68952303	      0.18371985	      0.98588590	      0.27565209	     15.19243146	     -6.79084627	     -2.83529328	     49.88617622	      7.30593760	      0.87067803	      9.30724513	      7.56582933	     -7.50555712	     -2.85348652	      1.06083156	     -7.72875445	      3.72894341	      0.38567065	      0.06508234	      7.43464271	     19.68526877	     -7.50555712	     -8.82166482	      0.40217000	     -4.87008534	     -7.50799496	    -12.70496581	      9.81076453	     29.16972190	     90.00000001	      0.00000000	      0.00000000	      6.47236329	    -16.85746832	     24.98711338	     30.03946867	     90.00000001	      0.00000000	      0.00000000
      2.31000000	      1.97921417	     -0.67375798	      0.96273307	      0.19306960	      0.98578367	      0.27445655	     15.78649626	     -6.53083484	     -3.28559248	     48.09096552	      7.36233307	      0.83934569	      9.43867021	      7.03039611	     -7.50535155	     -3.73274166	      0.97738825	     -7.51913466	      3.54315229	      0.35562568	      0.06183967	      7.89103024	     19.89773447	     -7.50535155	     -8.95704989	      0.70768417	     -5.07810739	     -7.96457134	    -12.51209707	      9.32085167	     28.97552587	     90.00000001	      0.00000000	      0.00000000	      7.23401771	    -17.00324960	     25.29649795	     30.61128966	     90.00000001	      0.00000000	      0.00000000
      2.32000000	      1.86729635	     -0.45099562	      1.04215261	      0.20226689	      0.98506503	      0.27326743	     16.82279635	     -6.66404340	     -3.76535193	     46.42365651	      7.21901334	      0.81024566	      9.51265300	      6.88746853	     -7.50529991	     -4.19070339	      1.32641297	     -7.69383349	      3.59337761	      0.28330056	      0.06271627	      8.22632740	     19.86907216	     -7.50529991	     -8.78368133	      0.59456897	     -5.11524786	     -8.49085086	    -12.39161094	      9.31151311	     28.84280822	     90.00000001	      0.00000000	      0.00000000	      7.96036139	    -17.05577611	     25.21227557	     31.12335302	     90.00000001	      0.00000000	      0.00000000
      2.33000000	      2.04501529	     -0.67673127	      1.40908943	      0.21184273	      0.98465297	      0.27200206	     17.13375005	     -6.32806542	     -4.18468325	     44.07983881	      7.40895840	      0.76933832	      9.60619942	      6.44594944	     -7.50518968	     -5.18934477	      1.17009456	     -7.14395190	      3.19302002	      0.18056077	      0.05572871	      8.95514030	     20.42460622	     -7.50518968	     -8.90192460	      1.01833810	     -5.44588495	     -8.89147071	    -12.23840470	      9.00826376	     28.56664145	     90.00000001	      0.00000000	      0.00000000	      8.53807902	    -17.19026798	     25.25855748	     31.93053817	     90.00000001	      0.00000000	      0.00000000
